<?xml version="1.0" encoding="UTF-8"?>
<!DOCTYPE svg PUBLIC "-//W3C//DTD SVG 1.1//EN" "http://www.w3.org/Graphics/SVG/1.1/DTD/svg11.dtd">
<svg xmlns="http://www.w3.org/2000/svg" xmlns:xlink="http://www.w3.org/1999/xlink" version="1.1" width="77px" height="99px" viewBox="-0.5 -0.5 77 99"><defs/><g><rect x="0" y="0" width="76" height="98" fill="none" stroke="none" pointer-events="all"/><path d="M 24.51 81.39 L 24.51 90.83 L 33.04 90.83 L 33.04 98 L 42.96 98 L 42.96 90.83 L 50.82 90.83 L 50.82 81.39 L 42.96 81.39 L 42.96 74.44 C 61.58 72.04 76 56.35 76 37.39 C 76 16.78 58.95 0 38 0 C 17.04 0 0 16.78 0 37.39 C 0 56.35 14.42 72.04 33.04 74.45 L 33.04 81.39 L 24.51 81.39 Z M 9.93 37.39 C 9.93 22.16 22.52 9.78 38 9.78 C 53.47 9.78 66.06 22.16 66.06 37.39 C 66.06 52.62 53.47 65 38 65 C 22.52 65 9.93 52.62 9.93 37.39 Z" fill="#000000" stroke="none" pointer-events="all"/></g></svg>