<?xml version="1.0" encoding="UTF-8"?>
<!DOCTYPE svg PUBLIC "-//W3C//DTD SVG 1.1//EN" "http://www.w3.org/Graphics/SVG/1.1/DTD/svg11.dtd">
<svg xmlns="http://www.w3.org/2000/svg" xmlns:xlink="http://www.w3.org/1999/xlink" version="1.1" width="82px" height="101px" viewBox="-0.5 -0.5 82 101"><defs/><g><path d="M 12.12 25.63 L 12.12 14.11 L 18.71 14.11 L 18.71 25.63 Z M 23.26 25.63 L 23.26 14.11 L 69.36 14.11 L 69.36 25.63 Z M 12.12 45.24 L 12.12 33.72 L 18.71 33.72 L 18.71 45.24 Z M 23.26 45.24 L 23.26 33.72 L 69.36 33.72 L 69.36 45.24 Z M 12.12 64.85 L 12.12 53.33 L 18.71 53.33 L 18.71 64.85 Z M 23.26 64.85 L 23.26 53.33 L 69.36 53.33 L 69.36 64.85 Z M 0 100 L 0 0 L 81 0 L 81 100 Z M 7.33 90.93 L 73.99 90.93 L 73.99 7.95 L 7.33 7.95 Z M 12.12 84.46 L 12.12 72.94 L 18.71 72.94 L 18.71 84.46 Z M 23.26 84.46 L 23.26 72.94 L 69.36 72.94 L 69.36 84.46 Z" fill="#000000" stroke="none" pointer-events="all"/></g></svg>