<?xml version="1.0" encoding="UTF-8"?>
<!DOCTYPE svg PUBLIC "-//W3C//DTD SVG 1.1//EN" "http://www.w3.org/Graphics/SVG/1.1/DTD/svg11.dtd">
<svg xmlns="http://www.w3.org/2000/svg" xmlns:xlink="http://www.w3.org/1999/xlink" version="1.1" width="104px" height="104px" viewBox="-0.5 -0.5 104 104"><defs/><g><rect x="0" y="0" width="103" height="103" fill="none" stroke="none" pointer-events="all"/><path d="M 83.09 28.03 L 91.83 19.29 L 99.84 27.31 L 103 0 L 75.69 3.15 L 83.71 11.18 L 74.97 19.91 C 57.74 6.69 32.9 7.93 17.14 23.7 C 0 40.85 0 68.73 17.14 85.86 C 34.27 103 62.17 103 79.3 85.86 C 95.06 70.11 96.32 45.26 83.09 28.03 Z M 25.27 77.74 C 12.6 65.09 12.6 44.49 25.27 31.83 C 37.92 19.17 58.52 19.17 71.18 31.83 C 83.85 44.49 83.85 65.09 71.18 77.74 C 58.52 90.4 37.92 90.4 25.27 77.74 Z" fill="#000000" stroke="none" pointer-events="all"/></g></svg>