<?xml version="1.0" encoding="UTF-8"?>
<!DOCTYPE svg PUBLIC "-//W3C//DTD SVG 1.1//EN" "http://www.w3.org/Graphics/SVG/1.1/DTD/svg11.dtd">
<svg xmlns="http://www.w3.org/2000/svg" xmlns:xlink="http://www.w3.org/1999/xlink" version="1.1" width="77px" height="88px" viewBox="-0.5 -0.5 77 88"><defs/><g><path d="M 7.63 40.14 L 7.63 32.88 L 11.78 32.88 L 11.78 40.14 Z M 14.65 40.14 L 14.65 32.88 L 43.67 32.88 L 43.67 40.14 Z M 7.63 52.48 L 7.63 45.23 L 11.78 45.23 L 11.78 52.48 Z M 14.65 52.48 L 14.65 45.23 L 43.67 45.23 L 43.67 52.48 Z M 7.63 64.83 L 7.63 57.58 L 11.78 57.58 L 11.78 64.83 Z M 14.65 64.83 L 14.65 57.58 L 43.67 57.58 L 43.67 64.83 Z M 0 86.96 L 0 24 L 51 24 L 51 86.96 Z M 4.61 81.25 L 46.59 81.25 L 46.59 29 L 4.61 29 Z M 7.63 77.18 L 7.63 69.93 L 11.78 69.93 L 11.78 77.18 Z M 14.65 77.18 L 14.65 69.93 L 43.67 69.93 L 43.67 77.18 Z" fill="#000000" stroke="none" pointer-events="all"/><path d="M 45 12 L 57 12 L 57 0 L 63 0 L 63 12 L 75 12 L 75 18 L 63 18 L 63 30 L 57 30 L 57 18 L 45 18 Z" fill="#000000" stroke="#000000" stroke-miterlimit="10" pointer-events="all"/></g></svg>